<?xml version="1.0" encoding="UTF-8" standalone="no"?>
<svg width="526px" height="166px" viewBox="0 0 526 166" version="1.1" xmlns="http://www.w3.org/2000/svg" xmlns:xlink="http://www.w3.org/1999/xlink" xmlns:sketch="http://www.bohemiancoding.com/sketch/ns">
    <title>ISUSEC_Logo</title>
    <description>Created with Sketch (http://www.bohemiancoding.com/sketch)</description>
    <defs></defs>
    <g id="Page-1" stroke="none" stroke-width="1" fill="none" fill-rule="evenodd" sketch:type="MSPage">
        <path d="M525.835938,32.9482422 L525.835938,52.3544922 C516.36714,44.4325776 506.570363,40.4716797 496.445312,40.4716797 C485.289007,40.4716797 475.890663,44.4794521 468.25,52.4951172 C460.562462,60.463907 456.71875,70.2138095 456.71875,81.7451172 C456.71875,93.1357991 460.562462,102.745078 468.25,110.573242 C475.937538,118.401406 485.359319,122.31543 496.515625,122.31543 C502.281279,122.31543 507.179667,121.377939 511.210938,119.50293 C513.460949,118.565425 515.792957,117.299813 518.207031,115.706055 C520.621106,114.112297 523.164049,112.190441 525.835938,109.94043 L525.835938,129.698242 C516.460891,134.995144 506.617239,137.643555 496.304688,137.643555 C480.788985,137.643555 467.54693,132.229546 456.578125,121.401367 C445.656195,110.479438 440.195312,97.3076943 440.195312,81.8857422 C440.195312,68.057548 444.765579,55.7295463 453.90625,44.9013672 C465.156306,31.6356759 479.710848,25.0029297 497.570312,25.0029297 C507.320361,25.0029297 516.742142,27.6513407 525.835938,32.9482422 Z M417.09375,42.5107422 L373.570312,42.5107422 L373.570312,68.5966797 L415.828125,68.5966797 L415.828125,83.9951172 L373.570312,83.9951172 L373.570312,120.276367 L417.09375,120.276367 L417.09375,135.674805 L357.1875,135.674805 L357.1875,27.1123047 L417.09375,27.1123047 L417.09375,42.5107422 Z M311.804371,112.930573 C311.529187,112.737887 309.986808,112.158609 307.177233,111.19274 C304.367658,110.226871 301.170082,109.156224 297.584506,107.980799 C293.99893,106.805374 292.18321,106.201604 292.137346,106.16949 C292.407281,104.222145 292.129348,102.325126 291.303546,100.478432 C290.477745,98.6317385 289.239292,97.1303342 287.588189,95.9742192 C285.157398,94.2721609 282.493913,93.6589394 279.597734,94.1345546 C276.701555,94.6101698 274.422227,96.0351079 272.759752,98.4093689 C271.097276,100.78363 270.537848,103.412854 271.081468,106.297043 C271.625087,109.181231 273.112293,111.474354 275.543084,113.176412 C277.194187,114.332527 279.017155,114.974753 281.011988,115.103089 C283.006822,115.231425 284.895962,114.851807 286.679408,113.964234 C286.771136,114.028462 287.970973,115.536208 290.278918,118.487471 C292.586864,121.438734 294.675112,124.069261 296.543663,126.379051 C298.412215,128.688842 299.484082,129.94008 299.759266,130.132765 C300.355498,130.550251 301.020463,130.69875 301.754162,130.578261 C302.48786,130.457771 303.058598,130.106344 303.466375,129.523978 L312.500204,116.622333 C312.907981,116.039967 313.043011,115.383454 312.905294,114.652793 C312.767577,113.922132 312.400603,113.348059 311.804371,112.930573 L311.804371,112.930573 Z M303.586764,7.07302608 L321.310236,19.4831344 C322.510263,20.3234022 323.240933,21.490162 323.502246,22.9834139 C323.763559,24.4766658 323.472995,25.8248565 322.630555,27.0279861 L319.520006,31.4703106 C318.677565,32.6734402 317.510059,33.4075891 316.017487,33.6727573 C314.524915,33.9379256 313.178615,33.6503758 311.978588,32.8101081 L294.255117,20.3999997 C289.3627,16.9742927 283.970626,15.7847976 278.078894,16.8315144 C272.187162,17.8782311 267.524014,20.8541229 264.089449,25.7591896 C260.654884,30.6642563 259.453351,36.0639973 260.48485,41.9584126 C261.516349,47.8528279 264.478307,52.5128891 269.370724,55.9385961 L282.663328,65.2461774 L287.329151,58.5826905 C288.625213,56.731722 290.373034,55.6108506 292.572614,55.2200763 C294.772194,54.8293021 296.795082,55.2802747 298.641277,56.5729944 L338.519088,84.4957381 C340.365283,85.7884578 341.480927,87.5351084 341.86602,89.7356902 C342.251112,91.9362719 341.795628,93.962047 340.499566,95.8130156 L293.841329,162.447884 C292.545267,164.298852 290.797446,165.419724 288.597866,165.810498 C286.398286,166.201272 284.375398,165.7503 282.529203,164.45758 L242.651392,136.534836 C240.805197,135.242117 239.689553,133.495466 239.30446,131.294884 C238.919367,129.094302 239.374852,127.068527 240.670914,125.217559 L273.33168,78.573151 L260.039076,69.2655697 C251.500425,63.2867415 246.326818,55.1298899 244.518257,44.795015 C242.709695,34.4601401 244.802558,25.0123379 250.796845,16.4516083 C256.791133,7.8908787 264.953361,2.69289221 275.283532,0.85764881 C285.613702,-0.977594587 295.048113,1.09419784 303.586764,7.07302608 L303.586764,7.07302608 Z" id="SEC" fill="#E20B00" sketch:type="MSShapeGroup"></path>
        <path d="M157.3125,27.1123047 L157.3125,92.5029297 C157.3125,101.831101 158.835922,108.651346 161.882812,112.963867 C166.42971,119.198273 172.828084,122.31543 181.078125,122.31543 C189.375041,122.31543 195.796852,119.198273 200.34375,112.963867 C203.39064,108.791971 204.914062,101.971727 204.914062,92.5029297 L204.914062,27.1123047 L221.296875,27.1123047 L221.296875,97.0029297 C221.296875,108.440487 217.734411,117.862268 210.609375,125.268555 C202.59371,133.518596 192.750058,137.643555 181.078125,137.643555 C169.406192,137.643555 159.585977,133.518596 151.617188,125.268555 C144.492152,117.862268 140.929688,108.440487 140.929688,97.0029297 L140.929688,27.1123047 L157.3125,27.1123047 Z M111.359375,43.2841797 L98.0703125,51.1591797 C95.5859251,46.8466581 93.2187613,44.0341863 90.96875,42.7216797 C88.6249883,41.2216722 85.601581,40.4716797 81.8984375,40.4716797 C77.3515398,40.4716797 73.57814,41.7607293 70.578125,44.3388672 C67.57811,46.8701298 66.078125,50.057598 66.078125,53.9013672 C66.078125,59.1982687 70.0155856,63.463851 77.890625,66.6982422 L88.71875,71.1279297 C97.5312941,74.6904475 103.976542,79.0380603 108.054688,84.1708984 C112.132833,89.3037366 114.171875,95.5966424 114.171875,103.049805 C114.171875,113.03423 110.843783,121.284147 104.1875,127.799805 C97.4843415,134.362337 89.1641122,137.643555 79.2265625,137.643555 C69.8046404,137.643555 62.0234682,134.85452 55.8828125,129.276367 C49.8359073,123.698214 46.0625075,115.84673 44.5625,105.72168 L61.15625,102.06543 C61.9062538,108.440462 63.2187406,112.846667 65.09375,115.28418 C68.4687669,119.971703 73.3905927,122.31543 79.859375,122.31543 C84.9687755,122.31543 89.2109206,120.604509 92.5859375,117.182617 C95.9609544,113.760725 97.6484375,109.424831 97.6484375,104.174805 C97.6484375,102.065419 97.3554717,100.131845 96.7695312,98.3740234 C96.1835908,96.6162021 95.2695375,94.9990308 94.0273438,93.5224609 C92.78515,92.0458911 91.1796973,90.6630924 89.2109375,89.3740234 C87.2421777,88.0849545 84.8984511,86.854498 82.1796875,85.6826172 L71.703125,81.3232422 C56.8436757,75.0419608 49.4140625,65.8545527 49.4140625,53.7607422 C49.4140625,45.6044514 52.5312188,38.7842071 58.765625,33.2998047 C65.0000312,27.768527 72.7577661,25.0029297 82.0390625,25.0029297 C94.5547501,25.0029297 104.32809,31.0966188 111.359375,43.2841797 Z M16.890625,27.1123047 L16.890625,135.674805 L0.5078125,135.674805 L0.5078125,27.1123047 L16.890625,27.1123047 Z" id="ISU" fill="#E8EDEE" sketch:type="MSShapeGroup"></path>
    </g>
</svg>